<mxfile host="app.diagrams.net" agent="Mozilla/5.0 (Windows NT 10.0; Win64; x64) AppleWebKit/537.36 (KHTML, like Gecko) Chrome/127.0.0.0 Safari/537.36 Edg/127.0.0.0" version="24.7.7">
  <diagram name="PÃ¡gina-1" id="n3_ngQ1i9GHtwO3-l_lH">
    <mxGraphModel dx="835" dy="473" grid="1" gridSize="10" guides="1" tooltips="1" connect="1" arrows="1" fold="1" page="1" pageScale="1" pageWidth="827" pageHeight="1169" math="0" shadow="0">
      <root>
        <mxCell id="0" />
        <mxCell id="1" parent="0" />
        <mxCell id="K4AcMpvR-q-yo40PjBH1-185" value="Entity" style="whiteSpace=wrap;html=1;align=center;" vertex="1" parent="1">
          <mxGeometry x="40" y="220" width="100" height="40" as="geometry" />
        </mxCell>
        <mxCell id="K4AcMpvR-q-yo40PjBH1-85" value="" style="group;fillColor=none;" vertex="1" connectable="0" parent="1">
          <mxGeometry x="20" y="90" width="150" height="50" as="geometry" />
        </mxCell>
        <mxCell id="K4AcMpvR-q-yo40PjBH1-86" value="&lt;sub style=&quot;&quot;&gt;&lt;font style=&quot;font-size: 10px;&quot;&gt;(0,n)&lt;/font&gt;&lt;/sub&gt;" style="text;html=1;align=left;verticalAlign=middle;resizable=0;points=[];autosize=1;strokeColor=none;fillColor=none;" vertex="1" parent="K4AcMpvR-q-yo40PjBH1-85">
          <mxGeometry x="100" width="40" height="30" as="geometry" />
        </mxCell>
        <mxCell id="K4AcMpvR-q-yo40PjBH1-87" value="Cliente" style="rounded=1;arcSize=10;whiteSpace=wrap;html=1;align=center;" vertex="1" parent="K4AcMpvR-q-yo40PjBH1-85">
          <mxGeometry y="10" width="100" height="40" as="geometry" />
        </mxCell>
        <mxCell id="K4AcMpvR-q-yo40PjBH1-93" style="edgeStyle=orthogonalEdgeStyle;rounded=0;orthogonalLoop=1;jettySize=auto;html=1;endArrow=none;endFill=0;" edge="1" parent="1" source="K4AcMpvR-q-yo40PjBH1-87" target="K4AcMpvR-q-yo40PjBH1-89">
          <mxGeometry relative="1" as="geometry" />
        </mxCell>
        <mxCell id="K4AcMpvR-q-yo40PjBH1-105" style="edgeStyle=orthogonalEdgeStyle;rounded=0;orthogonalLoop=1;jettySize=auto;html=1;entryX=0.5;entryY=0;entryDx=0;entryDy=0;endArrow=none;endFill=0;" edge="1" parent="1" source="K4AcMpvR-q-yo40PjBH1-101" target="K4AcMpvR-q-yo40PjBH1-89">
          <mxGeometry relative="1" as="geometry" />
        </mxCell>
        <mxCell id="K4AcMpvR-q-yo40PjBH1-106" style="edgeStyle=orthogonalEdgeStyle;rounded=0;orthogonalLoop=1;jettySize=auto;html=1;endArrow=none;endFill=0;" edge="1" parent="1" source="K4AcMpvR-q-yo40PjBH1-101" target="K4AcMpvR-q-yo40PjBH1-104">
          <mxGeometry relative="1" as="geometry" />
        </mxCell>
        <mxCell id="K4AcMpvR-q-yo40PjBH1-101" value="Valida" style="shape=rhombus;perimeter=rhombusPerimeter;whiteSpace=wrap;html=1;align=center;" vertex="1" parent="1">
          <mxGeometry x="150" y="40" width="100" height="40" as="geometry" />
        </mxCell>
        <mxCell id="K4AcMpvR-q-yo40PjBH1-102" value="" style="group" vertex="1" connectable="0" parent="1">
          <mxGeometry x="250" y="30" width="130" height="50" as="geometry" />
        </mxCell>
        <mxCell id="K4AcMpvR-q-yo40PjBH1-103" value="&lt;sub&gt;(1,1)&lt;/sub&gt;" style="text;html=1;align=right;verticalAlign=middle;resizable=0;points=[];autosize=1;strokeColor=none;fillColor=none;" vertex="1" parent="K4AcMpvR-q-yo40PjBH1-102">
          <mxGeometry x="-10" width="40" height="30" as="geometry" />
        </mxCell>
        <mxCell id="K4AcMpvR-q-yo40PjBH1-104" value="Pagamento" style="rounded=1;arcSize=10;whiteSpace=wrap;html=1;align=center;strokeColor=default;" vertex="1" parent="K4AcMpvR-q-yo40PjBH1-102">
          <mxGeometry x="30" y="10" width="100" height="40" as="geometry" />
        </mxCell>
        <mxCell id="K4AcMpvR-q-yo40PjBH1-107" value="&lt;sup&gt;(1,1)&lt;/sup&gt;" style="text;html=1;align=left;verticalAlign=middle;resizable=0;points=[];autosize=1;strokeColor=none;fillColor=none;" vertex="1" parent="1">
          <mxGeometry x="200" y="80" width="40" height="30" as="geometry" />
        </mxCell>
        <mxCell id="K4AcMpvR-q-yo40PjBH1-123" value="" style="group" vertex="1" connectable="0" parent="1">
          <mxGeometry x="150" y="100" width="100" height="40" as="geometry" />
        </mxCell>
        <mxCell id="K4AcMpvR-q-yo40PjBH1-117" value="Entity" style="whiteSpace=wrap;html=1;align=center;" vertex="1" parent="K4AcMpvR-q-yo40PjBH1-123">
          <mxGeometry width="100" height="40" as="geometry" />
        </mxCell>
        <mxCell id="K4AcMpvR-q-yo40PjBH1-89" value="Compra" style="shape=rhombus;perimeter=rhombusPerimeter;whiteSpace=wrap;html=1;align=center;" vertex="1" parent="K4AcMpvR-q-yo40PjBH1-123">
          <mxGeometry width="100" height="40" as="geometry" />
        </mxCell>
        <mxCell id="K4AcMpvR-q-yo40PjBH1-134" style="edgeStyle=orthogonalEdgeStyle;rounded=0;orthogonalLoop=1;jettySize=auto;html=1;exitX=0.5;exitY=1;exitDx=0;exitDy=0;endArrow=none;endFill=0;" edge="1" parent="1" source="K4AcMpvR-q-yo40PjBH1-132" target="K4AcMpvR-q-yo40PjBH1-131">
          <mxGeometry relative="1" as="geometry" />
        </mxCell>
        <mxCell id="K4AcMpvR-q-yo40PjBH1-132" value="Vincula" style="shape=rhombus;perimeter=rhombusPerimeter;whiteSpace=wrap;html=1;align=center;" vertex="1" parent="1">
          <mxGeometry x="560" y="130" width="100" height="40" as="geometry" />
        </mxCell>
        <mxCell id="K4AcMpvR-q-yo40PjBH1-146" value="" style="edgeStyle=orthogonalEdgeStyle;rounded=0;orthogonalLoop=1;jettySize=auto;html=1;endArrow=none;endFill=0;" edge="1" parent="1" source="K4AcMpvR-q-yo40PjBH1-131" target="K4AcMpvR-q-yo40PjBH1-145">
          <mxGeometry relative="1" as="geometry" />
        </mxCell>
        <mxCell id="K4AcMpvR-q-yo40PjBH1-131" value="Assento" style="rounded=1;arcSize=10;whiteSpace=wrap;html=1;align=center;container=0;" vertex="1" parent="1">
          <mxGeometry x="560" y="190" width="100" height="40" as="geometry" />
        </mxCell>
        <mxCell id="K4AcMpvR-q-yo40PjBH1-133" style="edgeStyle=orthogonalEdgeStyle;rounded=0;orthogonalLoop=1;jettySize=auto;html=1;endArrow=none;endFill=0;" edge="1" parent="1" source="K4AcMpvR-q-yo40PjBH1-92" target="K4AcMpvR-q-yo40PjBH1-132">
          <mxGeometry relative="1" as="geometry" />
        </mxCell>
        <mxCell id="K4AcMpvR-q-yo40PjBH1-151" value="" style="edgeStyle=orthogonalEdgeStyle;rounded=0;orthogonalLoop=1;jettySize=auto;html=1;endArrow=none;endFill=0;" edge="1" parent="1" source="K4AcMpvR-q-yo40PjBH1-128" target="K4AcMpvR-q-yo40PjBH1-150">
          <mxGeometry relative="1" as="geometry" />
        </mxCell>
        <mxCell id="K4AcMpvR-q-yo40PjBH1-165" style="edgeStyle=orthogonalEdgeStyle;rounded=0;orthogonalLoop=1;jettySize=auto;html=1;exitX=0;exitY=0.25;exitDx=0;exitDy=0;endArrow=none;endFill=0;" edge="1" parent="1" source="K4AcMpvR-q-yo40PjBH1-128" target="K4AcMpvR-q-yo40PjBH1-158">
          <mxGeometry relative="1" as="geometry" />
        </mxCell>
        <mxCell id="K4AcMpvR-q-yo40PjBH1-166" style="edgeStyle=orthogonalEdgeStyle;rounded=0;orthogonalLoop=1;jettySize=auto;html=1;exitX=0;exitY=0.75;exitDx=0;exitDy=0;endArrow=none;endFill=0;" edge="1" parent="1" source="K4AcMpvR-q-yo40PjBH1-128" target="K4AcMpvR-q-yo40PjBH1-159">
          <mxGeometry relative="1" as="geometry" />
        </mxCell>
        <mxCell id="K4AcMpvR-q-yo40PjBH1-128" value="Sessao" style="rounded=1;arcSize=10;whiteSpace=wrap;html=1;align=center;container=0;" vertex="1" parent="1">
          <mxGeometry x="430" y="250" width="100" height="40" as="geometry" />
        </mxCell>
        <mxCell id="K4AcMpvR-q-yo40PjBH1-138" value="" style="edgeStyle=orthogonalEdgeStyle;rounded=0;orthogonalLoop=1;jettySize=auto;html=1;endArrow=none;endFill=0;" edge="1" parent="1" source="K4AcMpvR-q-yo40PjBH1-135" target="K4AcMpvR-q-yo40PjBH1-128">
          <mxGeometry relative="1" as="geometry" />
        </mxCell>
        <mxCell id="K4AcMpvR-q-yo40PjBH1-135" value="Associa" style="shape=rhombus;perimeter=rhombusPerimeter;whiteSpace=wrap;html=1;align=center;" vertex="1" parent="1">
          <mxGeometry x="430" y="190" width="100" height="40" as="geometry" />
        </mxCell>
        <mxCell id="K4AcMpvR-q-yo40PjBH1-136" style="edgeStyle=orthogonalEdgeStyle;rounded=0;orthogonalLoop=1;jettySize=auto;html=1;entryX=0.5;entryY=0;entryDx=0;entryDy=0;endArrow=none;endFill=0;" edge="1" parent="1" source="K4AcMpvR-q-yo40PjBH1-92" target="K4AcMpvR-q-yo40PjBH1-135">
          <mxGeometry relative="1" as="geometry" />
        </mxCell>
        <mxCell id="K4AcMpvR-q-yo40PjBH1-140" value="&lt;sub style=&quot;&quot;&gt;&lt;font style=&quot;font-size: 10px;&quot;&gt;(1,1)&lt;/font&gt;&lt;/sub&gt;" style="text;html=1;align=left;verticalAlign=middle;resizable=0;points=[];autosize=1;strokeColor=none;fillColor=none;" vertex="1" parent="1">
          <mxGeometry x="530" y="120" width="40" height="30" as="geometry" />
        </mxCell>
        <mxCell id="K4AcMpvR-q-yo40PjBH1-141" value="&lt;sup style=&quot;&quot;&gt;&lt;font style=&quot;font-size: 10px;&quot;&gt;(1,1)&lt;/font&gt;&lt;/sup&gt;" style="text;html=1;align=left;verticalAlign=middle;resizable=0;points=[];autosize=1;strokeColor=none;fillColor=none;" vertex="1" parent="1">
          <mxGeometry x="610" y="170" width="40" height="30" as="geometry" />
        </mxCell>
        <mxCell id="K4AcMpvR-q-yo40PjBH1-142" value="&lt;sup style=&quot;&quot;&gt;&lt;font style=&quot;font-size: 10px;&quot;&gt;(1,1)&lt;/font&gt;&lt;/sup&gt;" style="text;html=1;align=left;verticalAlign=middle;resizable=0;points=[];autosize=1;strokeColor=none;fillColor=none;" vertex="1" parent="1">
          <mxGeometry x="480" y="230" width="40" height="30" as="geometry" />
        </mxCell>
        <mxCell id="K4AcMpvR-q-yo40PjBH1-143" value="&lt;sub style=&quot;&quot;&gt;&lt;font style=&quot;font-size: 10px;&quot;&gt;(1,n)&lt;/font&gt;&lt;/sub&gt;" style="text;html=1;align=left;verticalAlign=middle;resizable=0;points=[];autosize=1;strokeColor=none;fillColor=none;" vertex="1" parent="1">
          <mxGeometry x="480" y="160" width="40" height="30" as="geometry" />
        </mxCell>
        <mxCell id="K4AcMpvR-q-yo40PjBH1-152" value="" style="edgeStyle=orthogonalEdgeStyle;rounded=0;orthogonalLoop=1;jettySize=auto;html=1;endArrow=none;endFill=0;" edge="1" parent="1" source="K4AcMpvR-q-yo40PjBH1-144" target="K4AcMpvR-q-yo40PjBH1-150">
          <mxGeometry relative="1" as="geometry" />
        </mxCell>
        <mxCell id="K4AcMpvR-q-yo40PjBH1-144" value="Sala" style="rounded=1;arcSize=10;whiteSpace=wrap;html=1;align=center;container=0;" vertex="1" parent="1">
          <mxGeometry x="560" y="310" width="100" height="40" as="geometry" />
        </mxCell>
        <mxCell id="K4AcMpvR-q-yo40PjBH1-147" value="" style="edgeStyle=orthogonalEdgeStyle;rounded=0;orthogonalLoop=1;jettySize=auto;html=1;endArrow=none;endFill=0;" edge="1" parent="1" source="K4AcMpvR-q-yo40PjBH1-145" target="K4AcMpvR-q-yo40PjBH1-144">
          <mxGeometry relative="1" as="geometry" />
        </mxCell>
        <mxCell id="K4AcMpvR-q-yo40PjBH1-145" value="Possui" style="shape=rhombus;perimeter=rhombusPerimeter;whiteSpace=wrap;html=1;align=center;" vertex="1" parent="1">
          <mxGeometry x="560" y="250" width="100" height="40" as="geometry" />
        </mxCell>
        <mxCell id="K4AcMpvR-q-yo40PjBH1-148" value="&lt;sup style=&quot;&quot;&gt;&lt;font style=&quot;font-size: 10px;&quot;&gt;(1,1)&lt;/font&gt;&lt;/sup&gt;" style="text;html=1;align=left;verticalAlign=middle;resizable=0;points=[];autosize=1;strokeColor=none;fillColor=none;" vertex="1" parent="1">
          <mxGeometry x="610" y="290" width="40" height="30" as="geometry" />
        </mxCell>
        <mxCell id="K4AcMpvR-q-yo40PjBH1-149" value="&lt;sub style=&quot;&quot;&gt;&lt;font style=&quot;font-size: 10px;&quot;&gt;(n,n)&lt;/font&gt;&lt;/sub&gt;" style="text;html=1;align=left;verticalAlign=middle;resizable=0;points=[];autosize=1;strokeColor=none;fillColor=none;" vertex="1" parent="1">
          <mxGeometry x="610" y="220" width="40" height="30" as="geometry" />
        </mxCell>
        <mxCell id="K4AcMpvR-q-yo40PjBH1-150" value="Tem" style="shape=rhombus;perimeter=rhombusPerimeter;whiteSpace=wrap;html=1;align=center;" vertex="1" parent="1">
          <mxGeometry x="430" y="310" width="100" height="40" as="geometry" />
        </mxCell>
        <mxCell id="K4AcMpvR-q-yo40PjBH1-153" value="&lt;sub style=&quot;&quot;&gt;&lt;font style=&quot;font-size: 10px;&quot;&gt;(1,n)&lt;/font&gt;&lt;/sub&gt;" style="text;html=1;align=left;verticalAlign=middle;resizable=0;points=[];autosize=1;strokeColor=none;fillColor=none;" vertex="1" parent="1">
          <mxGeometry x="480" y="280" width="40" height="30" as="geometry" />
        </mxCell>
        <mxCell id="K4AcMpvR-q-yo40PjBH1-154" value="&lt;sub&gt;(1,1)&lt;/sub&gt;" style="text;html=1;align=right;verticalAlign=middle;resizable=0;points=[];autosize=1;strokeColor=none;fillColor=none;container=0;" vertex="1" parent="1">
          <mxGeometry x="520" y="300" width="40" height="30" as="geometry" />
        </mxCell>
        <mxCell id="K4AcMpvR-q-yo40PjBH1-170" value="" style="edgeStyle=orthogonalEdgeStyle;rounded=0;orthogonalLoop=1;jettySize=auto;html=1;endArrow=none;endFill=0;" edge="1" parent="1" source="K4AcMpvR-q-yo40PjBH1-156" target="K4AcMpvR-q-yo40PjBH1-162">
          <mxGeometry relative="1" as="geometry" />
        </mxCell>
        <mxCell id="K4AcMpvR-q-yo40PjBH1-172" value="" style="edgeStyle=orthogonalEdgeStyle;rounded=0;orthogonalLoop=1;jettySize=auto;html=1;endArrow=none;endFill=0;" edge="1" parent="1" source="K4AcMpvR-q-yo40PjBH1-156" target="K4AcMpvR-q-yo40PjBH1-163">
          <mxGeometry relative="1" as="geometry" />
        </mxCell>
        <mxCell id="K4AcMpvR-q-yo40PjBH1-156" value="Filme" style="rounded=1;arcSize=10;whiteSpace=wrap;html=1;align=center;" vertex="1" parent="1">
          <mxGeometry x="170" y="220" width="100" height="40" as="geometry" />
        </mxCell>
        <mxCell id="K4AcMpvR-q-yo40PjBH1-157" value="Exibicao" style="rounded=1;arcSize=10;whiteSpace=wrap;html=1;align=center;" vertex="1" parent="1">
          <mxGeometry x="300" y="340" width="100" height="40" as="geometry" />
        </mxCell>
        <mxCell id="K4AcMpvR-q-yo40PjBH1-167" value="" style="edgeStyle=orthogonalEdgeStyle;rounded=0;orthogonalLoop=1;jettySize=auto;html=1;endArrow=none;endFill=0;" edge="1" parent="1" source="K4AcMpvR-q-yo40PjBH1-158" target="K4AcMpvR-q-yo40PjBH1-156">
          <mxGeometry relative="1" as="geometry" />
        </mxCell>
        <mxCell id="K4AcMpvR-q-yo40PjBH1-158" value="Exibe" style="shape=rhombus;perimeter=rhombusPerimeter;whiteSpace=wrap;html=1;align=center;" vertex="1" parent="1">
          <mxGeometry x="300" y="220" width="100" height="40" as="geometry" />
        </mxCell>
        <mxCell id="K4AcMpvR-q-yo40PjBH1-169" value="" style="edgeStyle=orthogonalEdgeStyle;rounded=0;orthogonalLoop=1;jettySize=auto;html=1;endArrow=none;endFill=0;" edge="1" parent="1" source="K4AcMpvR-q-yo40PjBH1-159" target="K4AcMpvR-q-yo40PjBH1-157">
          <mxGeometry relative="1" as="geometry" />
        </mxCell>
        <mxCell id="K4AcMpvR-q-yo40PjBH1-159" value="Ocorre" style="shape=rhombus;perimeter=rhombusPerimeter;whiteSpace=wrap;html=1;align=center;" vertex="1" parent="1">
          <mxGeometry x="300" y="280" width="100" height="40" as="geometry" />
        </mxCell>
        <mxCell id="K4AcMpvR-q-yo40PjBH1-160" value="Classificacao" style="rounded=1;arcSize=10;whiteSpace=wrap;html=1;align=center;" vertex="1" parent="1">
          <mxGeometry x="170" y="340" width="100" height="40" as="geometry" />
        </mxCell>
        <mxCell id="K4AcMpvR-q-yo40PjBH1-161" value="Genero" style="rounded=1;arcSize=10;whiteSpace=wrap;html=1;align=center;" vertex="1" parent="1">
          <mxGeometry x="40" y="280" width="100" height="40" as="geometry" />
        </mxCell>
        <mxCell id="K4AcMpvR-q-yo40PjBH1-171" value="" style="edgeStyle=orthogonalEdgeStyle;rounded=0;orthogonalLoop=1;jettySize=auto;html=1;endArrow=none;endFill=0;" edge="1" parent="1" source="K4AcMpvR-q-yo40PjBH1-162" target="K4AcMpvR-q-yo40PjBH1-161">
          <mxGeometry relative="1" as="geometry" />
        </mxCell>
        <mxCell id="K4AcMpvR-q-yo40PjBH1-162" value="Associado" style="shape=rhombus;perimeter=rhombusPerimeter;whiteSpace=wrap;html=1;align=center;" vertex="1" parent="1">
          <mxGeometry x="40" y="220" width="100" height="40" as="geometry" />
        </mxCell>
        <mxCell id="K4AcMpvR-q-yo40PjBH1-173" value="" style="edgeStyle=orthogonalEdgeStyle;rounded=0;orthogonalLoop=1;jettySize=auto;html=1;endArrow=none;endFill=0;" edge="1" parent="1" source="K4AcMpvR-q-yo40PjBH1-163" target="K4AcMpvR-q-yo40PjBH1-160">
          <mxGeometry relative="1" as="geometry" />
        </mxCell>
        <mxCell id="K4AcMpvR-q-yo40PjBH1-163" value="Tem" style="shape=rhombus;perimeter=rhombusPerimeter;whiteSpace=wrap;html=1;align=center;" vertex="1" parent="1">
          <mxGeometry x="170" y="280" width="100" height="40" as="geometry" />
        </mxCell>
        <mxCell id="K4AcMpvR-q-yo40PjBH1-174" value="&lt;sub&gt;(1,n)&lt;/sub&gt;" style="text;html=1;align=right;verticalAlign=middle;resizable=0;points=[];autosize=1;strokeColor=none;fillColor=none;container=0;" vertex="1" parent="1">
          <mxGeometry x="130" y="210" width="40" height="30" as="geometry" />
        </mxCell>
        <mxCell id="K4AcMpvR-q-yo40PjBH1-175" value="&lt;sub style=&quot;&quot;&gt;&lt;font style=&quot;font-size: 10px;&quot;&gt;(1,1)&lt;/font&gt;&lt;/sub&gt;" style="text;html=1;align=left;verticalAlign=middle;resizable=0;points=[];autosize=1;strokeColor=none;fillColor=none;" vertex="1" parent="1">
          <mxGeometry x="270" y="210" width="40" height="30" as="geometry" />
        </mxCell>
        <mxCell id="K4AcMpvR-q-yo40PjBH1-176" value="&lt;sup&gt;(1,1)&lt;/sup&gt;" style="text;html=1;align=left;verticalAlign=middle;resizable=0;points=[];autosize=1;strokeColor=none;fillColor=none;" vertex="1" parent="1">
          <mxGeometry x="350" y="320" width="40" height="30" as="geometry" />
        </mxCell>
        <mxCell id="K4AcMpvR-q-yo40PjBH1-177" value="&lt;sup&gt;(1,n)&lt;/sup&gt;" style="text;html=1;align=left;verticalAlign=middle;resizable=0;points=[];autosize=1;strokeColor=none;fillColor=none;" vertex="1" parent="1">
          <mxGeometry x="90" y="260" width="40" height="30" as="geometry" />
        </mxCell>
        <mxCell id="K4AcMpvR-q-yo40PjBH1-178" value="&lt;sup&gt;(1,1)&lt;/sup&gt;" style="text;html=1;align=left;verticalAlign=middle;resizable=0;points=[];autosize=1;strokeColor=none;fillColor=none;" vertex="1" parent="1">
          <mxGeometry x="220" y="320" width="40" height="30" as="geometry" />
        </mxCell>
        <mxCell id="K4AcMpvR-q-yo40PjBH1-179" value="&lt;sup&gt;(1,n)&lt;/sup&gt;" style="text;html=1;align=right;verticalAlign=middle;resizable=0;points=[];autosize=1;strokeColor=none;fillColor=none;container=0;" vertex="1" parent="1">
          <mxGeometry x="395" y="230" width="40" height="30" as="geometry" />
        </mxCell>
        <mxCell id="K4AcMpvR-q-yo40PjBH1-180" value="&lt;sup&gt;(1,n)&lt;/sup&gt;" style="text;html=1;align=right;verticalAlign=middle;resizable=0;points=[];autosize=1;strokeColor=none;fillColor=none;container=0;" vertex="1" parent="1">
          <mxGeometry x="395" y="285" width="40" height="30" as="geometry" />
        </mxCell>
        <mxCell id="K4AcMpvR-q-yo40PjBH1-183" value="&lt;sub style=&quot;&quot;&gt;&lt;font style=&quot;font-size: 10px;&quot;&gt;(1,n)&lt;/font&gt;&lt;/sub&gt;" style="text;html=1;align=left;verticalAlign=middle;resizable=0;points=[];autosize=1;strokeColor=none;fillColor=none;" vertex="1" parent="1">
          <mxGeometry x="220" y="250" width="40" height="30" as="geometry" />
        </mxCell>
        <mxCell id="K4AcMpvR-q-yo40PjBH1-184" value="Cliente_ingresso" style="text;html=1;align=center;verticalAlign=middle;resizable=0;points=[];autosize=1;strokeColor=none;fillColor=none;" vertex="1" parent="1">
          <mxGeometry x="145" y="130" width="110" height="30" as="geometry" />
        </mxCell>
        <mxCell id="K4AcMpvR-q-yo40PjBH1-186" value="Filme_genero" style="text;html=1;align=center;verticalAlign=middle;resizable=0;points=[];autosize=1;strokeColor=none;fillColor=none;" vertex="1" parent="1">
          <mxGeometry x="40" y="195" width="100" height="30" as="geometry" />
        </mxCell>
        <mxCell id="K4AcMpvR-q-yo40PjBH1-188" style="edgeStyle=orthogonalEdgeStyle;rounded=0;orthogonalLoop=1;jettySize=auto;html=1;endArrow=none;endFill=0;" edge="1" parent="1" source="K4AcMpvR-q-yo40PjBH1-187" target="K4AcMpvR-q-yo40PjBH1-117">
          <mxGeometry relative="1" as="geometry" />
        </mxCell>
        <mxCell id="K4AcMpvR-q-yo40PjBH1-91" value="&lt;sub&gt;(1,n)&lt;/sub&gt;" style="text;html=1;align=right;verticalAlign=middle;resizable=0;points=[];autosize=1;strokeColor=none;fillColor=none;container=0;" vertex="1" parent="1">
          <mxGeometry x="240" y="90" width="40" height="30" as="geometry" />
        </mxCell>
        <mxCell id="K4AcMpvR-q-yo40PjBH1-197" style="rounded=0;orthogonalLoop=1;jettySize=auto;html=1;entryX=0;entryY=0.25;entryDx=0;entryDy=0;endArrow=none;endFill=0;exitX=0;exitY=0.5;exitDx=0;exitDy=0;" edge="1" parent="1" source="K4AcMpvR-q-yo40PjBH1-92" target="K4AcMpvR-q-yo40PjBH1-190">
          <mxGeometry relative="1" as="geometry" />
        </mxCell>
        <mxCell id="K4AcMpvR-q-yo40PjBH1-92" value="Ingresso" style="rounded=1;arcSize=10;whiteSpace=wrap;html=1;align=center;container=0;" vertex="1" parent="1">
          <mxGeometry x="430" y="130" width="100" height="40" as="geometry" />
        </mxCell>
        <mxCell id="K4AcMpvR-q-yo40PjBH1-196" style="rounded=0;orthogonalLoop=1;jettySize=auto;html=1;entryX=0;entryY=0.75;entryDx=0;entryDy=0;endArrow=none;endFill=0;exitX=0;exitY=0.5;exitDx=0;exitDy=0;" edge="1" parent="1" source="K4AcMpvR-q-yo40PjBH1-189" target="K4AcMpvR-q-yo40PjBH1-190">
          <mxGeometry relative="1" as="geometry" />
        </mxCell>
        <mxCell id="K4AcMpvR-q-yo40PjBH1-189" value="Comidas" style="rounded=1;arcSize=10;whiteSpace=wrap;html=1;align=center;" vertex="1" parent="1">
          <mxGeometry x="430" y="70" width="100" height="40" as="geometry" />
        </mxCell>
        <mxCell id="K4AcMpvR-q-yo40PjBH1-194" value="" style="edgeStyle=orthogonalEdgeStyle;rounded=0;orthogonalLoop=1;jettySize=auto;html=1;endArrow=none;endFill=0;" edge="1" parent="1" source="K4AcMpvR-q-yo40PjBH1-190" target="K4AcMpvR-q-yo40PjBH1-187">
          <mxGeometry relative="1" as="geometry" />
        </mxCell>
        <mxCell id="K4AcMpvR-q-yo40PjBH1-190" value="" style="triangle;whiteSpace=wrap;html=1;rotation=-180;" vertex="1" parent="1">
          <mxGeometry x="394" y="110" width="20" height="20" as="geometry" />
        </mxCell>
        <mxCell id="K4AcMpvR-q-yo40PjBH1-187" value="Produto" style="rounded=1;arcSize=10;whiteSpace=wrap;html=1;align=center;" vertex="1" parent="1">
          <mxGeometry x="280" y="100" width="100" height="40" as="geometry" />
        </mxCell>
        <mxCell id="K4AcMpvR-q-yo40PjBH1-202" value="" style="edgeStyle=orthogonalEdgeStyle;rounded=0;orthogonalLoop=1;jettySize=auto;html=1;endArrow=none;endFill=0;" edge="1" parent="1" source="K4AcMpvR-q-yo40PjBH1-199" target="K4AcMpvR-q-yo40PjBH1-200">
          <mxGeometry relative="1" as="geometry" />
        </mxCell>
        <mxCell id="K4AcMpvR-q-yo40PjBH1-199" value="Funcionario" style="rounded=1;arcSize=10;whiteSpace=wrap;html=1;align=center;" vertex="1" parent="1">
          <mxGeometry x="560" y="10" width="100" height="40" as="geometry" />
        </mxCell>
        <mxCell id="K4AcMpvR-q-yo40PjBH1-201" value="" style="edgeStyle=orthogonalEdgeStyle;rounded=0;orthogonalLoop=1;jettySize=auto;html=1;endArrow=none;endFill=0;" edge="1" parent="1" source="K4AcMpvR-q-yo40PjBH1-200" target="K4AcMpvR-q-yo40PjBH1-189">
          <mxGeometry relative="1" as="geometry" />
        </mxCell>
        <mxCell id="K4AcMpvR-q-yo40PjBH1-200" value="Separa" style="shape=rhombus;perimeter=rhombusPerimeter;whiteSpace=wrap;html=1;align=center;" vertex="1" parent="1">
          <mxGeometry x="430" y="10" width="100" height="40" as="geometry" />
        </mxCell>
        <mxCell id="K4AcMpvR-q-yo40PjBH1-203" value="&lt;sub&gt;(1,1)&lt;/sub&gt;" style="text;html=1;align=right;verticalAlign=middle;resizable=0;points=[];autosize=1;strokeColor=none;fillColor=none;container=0;" vertex="1" parent="1">
          <mxGeometry x="520" width="40" height="30" as="geometry" />
        </mxCell>
        <mxCell id="K4AcMpvR-q-yo40PjBH1-204" value="&lt;sup style=&quot;&quot;&gt;&lt;font style=&quot;font-size: 10px;&quot;&gt;(1,n)&lt;/font&gt;&lt;/sup&gt;" style="text;html=1;align=left;verticalAlign=middle;resizable=0;points=[];autosize=1;strokeColor=none;fillColor=none;" vertex="1" parent="1">
          <mxGeometry x="480" y="50" width="40" height="30" as="geometry" />
        </mxCell>
      </root>
    </mxGraphModel>
  </diagram>
</mxfile>
